<?xml version="1.0" encoding="UTF-8" standalone="no"?><!DOCTYPE svg PUBLIC "-//W3C//DTD SVG 1.1//EN" "http://www.w3.org/Graphics/SVG/1.1/DTD/svg11.dtd"><svg width="100%" height="100%" viewBox="0 0 1079 326" version="1.1" xmlns="http://www.w3.org/2000/svg" xmlns:xlink="http://www.w3.org/1999/xlink" xml:space="preserve" xmlns:serif="http://www.serif.com/" style="fill-rule:evenodd;clip-rule:evenodd;stroke-linejoin:round;stroke-miterlimit:2;"><rect id="devdes-brand-color" x="0" y="0" width="1078.6" height="325.748" style="fill:none;"/><g><g><path d="M225.375,276.311l-17.123,-16.551l-17.121,-16.437l-17.123,-16.438l-17.122,-16.38l-17.122,-16.323c-5.708,-5.708 -11.415,-10.845 -17.123,-16.268l-8.619,-8.104l-8.675,-7.99l-8.674,-8.048l-8.733,-8.047l-0.285,0c-1.857,-1.707 -4.745,-1.587 -6.452,0.269c-0.844,0.918 -1.277,2.14 -1.197,3.384l0.571,9.703l1.256,19.405l0.684,9.702l0.686,9.703c0,3.253 0.456,6.507 0.741,9.702l0.856,9.589c0,3.254 0.572,6.507 0.857,9.703c0,-3.253 0.456,-6.506 0.627,-9.76l0.571,-9.76c0,-3.253 0.342,-6.506 0.513,-9.759l0.458,-9.76l0.456,-9.76l0.4,-9.76l0.342,-7.933l0.513,0.513l8.106,8.676l8.104,8.676l8.105,8.617c5.422,5.708 10.786,11.415 16.265,17.123l16.325,17.122l16.379,17.123l16.438,17.122l16.494,17.123l6.45,6.62c-2.397,0.761 -4.814,1.465 -7.248,2.113c-6.851,1.758 -13.84,2.923 -20.89,3.481c-7.027,0.589 -14.091,0.589 -21.117,0c-7.037,-0.614 -14.007,-1.836 -20.833,-3.654c-6.81,-1.813 -13.454,-4.2 -19.862,-7.134c-6.415,-2.924 -12.564,-6.399 -18.378,-10.387c-5.865,-3.979 -11.383,-8.447 -16.494,-13.356l-0.856,-0.799l-1.028,-1.027l-1.027,-1.027l-1.084,-0.914l-1.77,-1.883l-1.541,-1.998c-2.32,-2.663 -4.528,-5.421 -6.62,-8.276c-2.093,-2.853 -3.995,-5.783 -5.708,-8.789c-1.826,-3.006 -3.539,-6.107 -5.136,-9.303c-3.155,-6.326 -5.753,-12.914 -7.763,-19.691c-1.103,-3.424 -2.017,-6.906 -2.74,-10.445c-0.723,-3.538 -1.312,-7 -1.768,-10.387c-1.699,-14.208 -1.005,-28.6 2.054,-42.577c1.561,-7.014 3.699,-13.887 6.392,-20.548c4.707,-11.534 11.071,-22.321 18.892,-32.019l19.862,17.637l12.443,10.901l6.22,5.707l6.279,5.707l12.499,10.845l6.278,5.422l6.279,5.365l6.277,5.365l6.336,5.365l6.506,4.68l6.392,5.308l-5.707,-6.107l-5.708,-6.05l-5.706,-6.049l-5.708,-6.051l-5.707,-6.049l-5.708,-5.993l-11.415,-11.986l-5.708,-5.707l-5.707,-5.708l-11.414,-11.871c-7.649,-8.334 -15.468,-16.267 -23.116,-24.086c-2.332,-2.348 -6.127,-2.361 -8.475,-0.029l-0.029,0.029c-11.455,11.289 -20.809,24.528 -27.624,39.096c-3.527,7.302 -6.392,14.904 -8.561,22.716c-2.109,7.832 -3.522,15.834 -4.224,23.914c-0.699,8.109 -0.699,16.263 0,24.371c0.342,4.072 0.876,8.105 1.598,12.1c0.723,3.995 1.618,7.971 2.683,11.928c2.149,7.84 4.976,15.479 8.447,22.83c3.479,7.419 7.624,14.506 12.385,21.175c2.359,3.348 4.87,6.582 7.534,9.702l1.998,2.34l2.054,2.912l1.027,1.141l0.971,1.027l0.97,1.028l1.141,1.141c5.824,5.777 12.146,11.029 18.892,15.696c6.749,4.681 13.891,8.768 21.346,12.214c7.466,3.419 15.221,6.17 23.172,8.219c7.933,2.064 16.03,3.439 24.201,4.108c8.164,0.724 16.376,0.724 24.541,0c8.205,-0.837 16.32,-2.384 24.257,-4.623c7.843,-2.187 15.482,-5.052 22.83,-8.561c4.731,-2.003 6.943,-7.463 4.939,-12.193c-0.495,-1.17 -1.225,-2.225 -2.143,-3.103" style="fill:#3d5afe;fill-rule:nonzero;"/><path d="M303.681,148.122c-0.711,-8.12 -2.143,-16.162 -4.279,-24.028c-2.15,-7.841 -4.976,-15.479 -8.448,-22.831c-1.769,-3.709 -3.653,-7.362 -5.708,-10.9c-2.054,-3.539 -4.338,-7.078 -6.678,-10.503c-2.34,-3.424 -4.908,-6.562 -7.533,-9.702c-2.626,-3.139 -5.708,-6.107 -8.333,-9.017c-5.818,-5.783 -12.141,-11.035 -18.892,-15.696c-6.748,-4.683 -13.889,-8.77 -21.345,-12.214c-7.574,-3.446 -15.445,-6.197 -23.515,-8.219c-7.86,-2.032 -15.88,-3.388 -23.971,-4.052c-8.165,-0.728 -16.378,-0.728 -24.543,0c-8.16,0.787 -16.238,2.277 -24.143,4.451c-7.847,2.202 -15.485,5.086 -22.829,8.619c-4.653,2.254 -6.596,7.853 -4.343,12.505c0.473,0.976 1.113,1.863 1.889,2.619l17.122,16.495l17.122,16.437l8.561,8.22l8.563,8.161l17.121,16.38l17.123,16.267c5.707,5.707 11.415,10.844 17.122,16.209l8.676,8.104l8.674,8.048l8.676,8.048l8.733,8.048l0.285,0c1.856,1.707 4.744,1.586 6.452,-0.27c0.843,-0.917 1.276,-2.14 1.196,-3.384l-0.571,-9.702l-0.627,-9.703l-0.629,-9.132l-0.684,-9.702l-0.685,-9.704c0,-3.253 -0.457,-6.506 -0.743,-9.703l-0.798,-9.702c0,-3.253 -0.571,-6.507 -0.857,-9.703c0,3.253 -0.457,6.507 -0.627,9.76l-0.571,9.761c0,3.252 -0.343,6.505 -0.514,9.759l-0.913,19.519l-0.4,9.76l-0.342,7.99l-0.514,-0.57l-8.104,-8.676l-8.219,-8.903l-8.162,-8.619c-5.707,-5.707 -10.844,-11.414 -16.266,-17.122l-16.323,-17.122l-16.438,-17.123l-8.219,-8.561l-8.218,-8.675l-16.552,-17.008l-6.45,-6.621c2.398,-0.761 4.814,-1.465 7.249,-2.112c6.849,-1.778 13.837,-2.961 20.889,-3.538c7.047,-0.587 14.13,-0.587 21.175,0c7.035,0.595 14.006,1.797 20.832,3.595c6.809,1.819 13.453,4.206 19.863,7.135c6.415,2.923 12.564,6.398 18.377,10.387c5.825,4.007 11.304,8.494 16.381,13.412c2.548,2.474 4.965,5.137 7.248,7.991c2.283,2.854 4.491,5.612 6.621,8.276c4.176,5.709 7.861,11.762 11.015,18.093c3.174,6.192 5.809,12.647 7.877,19.291c2.01,6.814 3.459,13.781 4.338,20.832c1.694,14.208 0.999,28.599 -2.055,42.578c-1.561,7.013 -3.699,13.886 -6.393,20.547c-4.741,11.56 -11.143,22.365 -19.006,32.076l-1.313,-1.142l-6.22,-5.708l-12.442,-10.957l-12.443,-10.902l-12.499,-10.844l-12.557,-10.844l-12.613,-10.788l-6.506,-4.908l-12.672,-10.615l-6.391,-5.309l5.708,6.107l5.706,6.051l5.708,6.049l5.707,5.993l11.415,11.986l11.415,11.929l11.414,11.928l11.416,11.872l11.415,11.814l11.415,11.415c2.12,2.332 5.73,2.504 8.063,0.385c0.133,-0.122 0.261,-0.251 0.384,-0.385c5.953,-5.569 11.415,-11.641 16.323,-18.15c4.622,-6.585 8.67,-13.555 12.1,-20.832c3.437,-7.346 6.207,-14.987 8.275,-22.831c2.106,-7.832 3.52,-15.834 4.224,-23.913c0.767,-8.065 0.844,-16.18 0.228,-24.257" style="fill:#2979ff;fill-rule:nonzero;"/></g><g><path d="M371.842,203.349c0,23.739 9.521,36.065 25.325,36.065c17.88,0 29.048,-13.73 40.703,-33.502l7.201,-53.03c-5.24,-11.114 -16.518,-18.115 -28.803,-17.88c-33.686,-0.061 -44.426,41.13 -44.426,68.347m97.639,-126.503l-24.41,170.868l-11.594,0l1.647,-24.41c-8.604,14.89 -21.419,27.217 -40.215,27.217c-23.494,0 -37.407,-18.307 -37.407,-47.904c-0.061,-31.611 14.34,-78.843 57.058,-78.843c12.962,-0.463 25.225,5.877 32.343,16.721l9.153,-65.296l13.425,1.647Z" style="fill:#3d5afe;fill-rule:nonzero;"/><path d="M506.767,189.619c45.097,-3.722 69.263,-13.974 69.263,-36.065c0,-9.52 -6.775,-18.307 -23.007,-18.307c-30.024,-0.305 -43.266,28.559 -46.562,54.372l0.306,0Zm-0.671,10.436l0,1.403c0,26.484 12.57,37.408 31.183,37.408c12.445,-0.079 24.494,-4.383 34.174,-12.205l6.102,9.52c-11.87,9.15 -26.388,14.204 -41.375,14.401c-28.132,0 -44.181,-17.697 -44.181,-48.819c0,-33.929 17.453,-77.928 61.024,-77.928c23.738,0 37.224,12.815 37.224,29.292c-0.304,31.122 -34.905,43.205 -84.151,46.928" style="fill:#3d5afe;fill-rule:nonzero;"/><path d="M651.089,247.958l-16.538,0l-26.057,-121.621l14.646,0l21.176,109.538l50.955,-109.538l14.889,0l-59.071,121.621Z" style="fill:#3d5afe;fill-rule:nonzero;"/><path d="M731.58,203.349c0,23.739 9.52,36.065 25.325,36.065c17.88,0 29.048,-13.73 40.703,-33.502l7.506,-53.03c-5.239,-11.114 -16.517,-18.115 -28.804,-17.88c-33.806,-0.061 -44.791,41.13 -44.791,68.347l0.061,0Zm97.639,-126.503l-24.41,170.868l-11.656,0l1.649,-24.41c-8.605,14.89 -21.42,27.217 -40.215,27.217c-23.495,0 -37.47,-18.307 -37.47,-47.904c0,-31.611 14.647,-78.843 56.997,-78.843c12.962,-0.463 25.226,5.877 32.343,16.721l9.275,-65.357l13.487,1.708Z" style="fill:#2979ff;fill-rule:nonzero;"/><path d="M866.138,189.619c45.097,-3.722 69.323,-13.974 69.323,-36.065c0,-9.52 -6.773,-18.307 -23.006,-18.307c-29.536,-0.305 -42.778,28.559 -46.317,54.372m-0.428,10.436l0,1.403c0,26.484 12.572,37.408 31.184,37.408c12.445,-0.079 24.494,-4.383 34.174,-12.205l6.102,9.52c-11.872,9.146 -26.388,14.199 -41.375,14.401c-28.132,0 -44.18,-17.697 -44.18,-48.819c0,-33.929 17.452,-77.928 61.023,-77.928c23.738,0 37.225,12.815 37.225,29.292c0,31.122 -34.906,43.205 -84.153,46.928" style="fill:#2979ff;fill-rule:nonzero;"/><path d="M1056.59,137.505l-7.384,8.177c-8.59,-7.052 -19.399,-10.835 -30.512,-10.679c-17.453,0 -28.803,7.933 -28.803,20.687c0,10.435 6.773,16.294 26.484,22.335c23.983,7.445 34.174,17.697 34.174,35.577c0,21.846 -18.308,36.981 -47.233,36.981c-15.888,0.485 -31.297,-5.48 -42.717,-16.538l7.933,-7.933c9.66,8.568 22.179,13.206 35.089,12.998c21.419,0 33.258,-10.008 33.258,-24.41c0,-12.815 -6.102,-19.039 -27.888,-25.813c-24.41,-7.689 -32.526,-17.209 -32.526,-32.342c0,-17.209 15.806,-32.526 42.717,-32.526c13.722,-0.371 27.08,4.444 37.408,13.486" style="fill:#2979ff;fill-rule:nonzero;"/></g></g></svg>